# xmcd
#
# Track frame offsets:
#	150
#	6210
#	23187
#	41582
#	60065
#	79995
#	95992
#	113977
#	130187
#	148395
#	163257
#
# Disc length: 2558 seconds
#
# Revision: 1
# Processed by: cddbd v1.5.1PL0 Copyright (c) Steve Scherf et al.
# Submitted via: CDex 1.50Beta5
#
DISCID=9709fc0b
DTITLE=簑谷雅彦 - 原風景
DYEAR=1994
DGENRE=Pop
TTITLE0=海にきています
TTITLE1=青い影
TTITLE2=国道232
TTITLE3=たわむれ
TTITLE4=窓辺にもたれて
TTITLE5=哀しいつばさ
TTITLE6=笑えないピエロ
TTITLE7=男と女がいる時間
TTITLE8=夜明けの街を
TTITLE9=問わず語らず
TTITLE10=海にきています
EXTD=
EXTT0=
EXTT1=
EXTT2=
EXTT3=
EXTT4=
EXTT5=
EXTT6=
EXTT7=
EXTT8=
EXTT9=
EXTT10=
PLAYORDER=
